<svg width="2562" height="695" viewBox="0 0 2562 695" fill="none" xmlns="http://www.w3.org/2000/svg">
<path d="M2310.48 379.104C2313.11 377.353 2315.74 375.601 2320.11 375.601C2299.1 387.861 2292.97 396.617 2274.58 410.628C2266.7 417.633 2257.94 424.639 2249.19 430.768C2243.93 435.147 2236.93 439.525 2230.8 443.028C2226.42 445.655 2221.16 446.53 2216.79 446.53C2209.78 446.53 2205.4 443.028 2202.77 437.774C2201.02 433.395 2201.02 429.017 2201.02 424.639C2201.02 416.758 2202.77 410.628 2204.53 403.623C2209.78 386.985 2215.03 371.223 2222.92 355.461C2223.79 353.71 2225.54 351.083 2227.29 349.332C2229.04 347.58 2232.55 346.705 2234.3 348.456C2236.93 349.332 2238.68 351.959 2238.68 354.586C2237.8 357.213 2237.8 359.84 2236.05 362.466C2232.55 372.975 2228.17 383.482 2224.67 393.99C2221.16 402.747 2218.54 412.379 2216.79 421.136C2215.91 423.763 2215.91 427.266 2215.91 429.893C2215.91 434.271 2217.66 435.147 2221.16 434.271C2224.67 433.395 2228.17 432.52 2230.8 430.768C2238.68 427.266 2245.68 422.887 2252.69 418.509C2264.95 410.628 2276.33 401.871 2288.59 393.99C2299.1 386.109 2299.97 386.109 2310.48 379.104ZM2240.43 323.062C2236.05 320.435 2237.8 316.056 2243.06 313.429C2243.93 312.554 2245.68 312.554 2246.56 313.429C2247.43 314.305 2248.31 315.181 2248.31 316.056C2248.31 320.435 2243.93 325.689 2240.43 323.062Z" fill="#FF564F"/>
<path d="M2006.29 153.182C2016.8 155.809 2029.06 153.182 2040.44 152.306C2066.71 149.679 2093.86 146.177 2120.13 143.55C2144.65 140.923 2169.17 138.296 2193.68 136.544C2207.69 134.793 2220.83 133.917 2234.84 133.042C2238.34 133.042 2239.22 132.166 2240.09 128.663C2242.72 117.28 2247.1 106.772 2251.48 96.2638C2255.86 87.5072 2259.36 77.8748 2263.74 69.1182C2264.61 67.3669 2265.49 65.6155 2267.24 63.8642C2268.99 61.2372 2273.37 59.4859 2276 61.2372C2278.62 62.1128 2281.25 64.7399 2281.25 68.2425C2281.25 70.8695 2280.38 73.4965 2280.38 75.2479C2274.25 91.0099 2268.99 105.896 2263.74 120.782C2262.86 121.658 2262.86 122.534 2262.86 123.409C2259.36 131.29 2259.36 131.29 2268.12 130.415C2287.38 129.539 2306.65 127.788 2326.79 126.912C2355.68 125.161 2384.58 124.285 2413.48 123.409C2423.11 122.534 2431.87 122.534 2440.62 122.534C2466.02 121.658 2492.29 121.658 2517.68 120.782C2529.94 120.782 2541.32 120.782 2553.58 120.782C2555.33 120.782 2557.96 121.658 2559.71 121.658C2560.59 121.658 2561.46 122.534 2561.46 123.409C2561.46 124.285 2560.59 125.161 2559.71 125.161C2558.84 126.036 2557.96 126.036 2556.21 126.036C2548.33 124.285 2539.57 126.036 2530.82 126.036C2515.05 126.912 2499.29 127.788 2483.53 128.663C2459.01 129.539 2435.37 130.415 2410.85 131.29C2396.84 132.166 2382.83 133.042 2368.82 133.917C2350.43 134.793 2332.92 135.669 2315.4 137.42C2298.76 138.296 2283 140.047 2266.36 140.923C2255.86 141.798 2255.86 141.798 2252.35 151.431C2224.33 223.235 2199.81 295.916 2176.17 369.472C2166.54 399.244 2156.03 429.017 2146.4 459.665C2144.65 465.795 2142.9 471.925 2141.14 478.054C2141.14 479.806 2140.27 481.557 2139.39 483.308C2138.52 484.184 2136.77 484.184 2135.89 484.184C2135.01 484.184 2134.14 482.433 2134.14 481.557C2134.14 479.806 2134.14 478.054 2135.01 475.427C2138.52 461.417 2142.02 447.406 2145.52 433.395C2170.92 337.948 2201.57 243.376 2234.84 150.555C2235.72 148.804 2235.72 147.928 2236.59 146.177C2236.59 144.425 2235.72 143.55 2233.96 143.55C2228.71 144.425 2222.58 144.425 2217.33 145.301C2191.06 147.928 2163.91 150.555 2137.64 153.182C2109.62 156.685 2081.6 160.187 2052.7 162.814C2036.06 164.566 2020.3 166.317 2003.66 168.068C1994.03 168.944 1985.28 168.944 1976.52 168.944C1973.02 168.944 1969.51 168.068 1966.01 167.193C1964.26 167.193 1962.51 166.317 1961.63 165.441C1958.13 163.69 1958.13 159.312 1961.63 157.56C1963.38 156.685 1966.01 155.809 1967.76 154.933C1980.02 153.182 1993.16 152.306 2006.29 153.182Z" fill="#FF564F"/>
<path d="M1947.29 153.182C1957.79 155.809 1970.05 153.182 1981.44 152.306C2007.71 149.679 2034.85 146.177 2061.12 143.55C2085.64 140.923 2110.16 138.296 2134.68 136.544C2148.69 134.793 2161.82 133.917 2175.83 133.042C2179.34 133.042 2180.21 132.166 2181.09 128.663C2183.72 117.28 2188.09 106.772 2192.47 96.2638C2196.85 87.5072 2200.35 77.8748 2204.73 69.1182C2205.61 67.3669 2206.48 65.6155 2208.23 63.8642C2209.99 61.2372 2214.36 59.4859 2216.99 61.2372C2219.62 62.1128 2222.25 64.7399 2222.25 68.2425C2222.25 70.8695 2221.37 73.4965 2221.37 75.2479C2215.24 91.0099 2209.99 105.896 2204.73 120.782C2203.86 121.658 2203.86 122.534 2203.86 123.409C2200.35 131.29 2200.35 131.29 2209.11 130.415C2228.37 129.539 2247.64 127.788 2267.78 126.912C2296.68 125.161 2325.57 124.285 2354.47 123.409C2364.1 122.534 2372.86 122.534 2381.62 122.534C2407.01 121.658 2433.28 121.658 2458.67 120.782C2470.93 120.782 2482.32 120.782 2494.58 120.782C2496.33 120.782 2498.96 121.658 2500.71 121.658C2501.58 121.658 2502.46 122.534 2502.46 123.409C2502.46 124.285 2501.58 125.161 2500.71 125.161C2499.83 126.036 2498.96 126.036 2497.2 126.036C2489.32 124.285 2480.57 126.036 2471.81 126.036C2456.05 126.912 2440.29 127.788 2424.52 128.663C2400.01 129.539 2376.36 130.415 2351.84 131.29C2337.83 132.166 2323.82 133.042 2309.81 133.917C2291.42 134.793 2273.91 135.669 2256.4 137.42C2239.76 138.296 2224 140.047 2207.36 140.923C2196.85 141.798 2196.85 141.798 2193.35 151.431C2165.33 223.235 2140.81 295.916 2117.17 369.472C2107.53 399.244 2097.02 429.017 2087.39 459.665C2085.64 465.795 2083.89 471.925 2082.14 478.054C2082.14 479.806 2081.26 481.557 2080.39 483.308C2079.51 484.184 2077.76 484.184 2076.88 484.184C2076.01 484.184 2075.13 482.433 2075.13 481.557C2075.13 479.806 2075.13 478.054 2076.01 475.427C2079.51 461.417 2083.01 447.406 2086.52 433.395C2111.91 337.948 2142.56 243.376 2175.83 150.555C2176.71 148.804 2176.71 147.928 2177.59 146.177C2177.59 144.425 2176.71 143.55 2174.96 143.55C2169.71 144.425 2163.58 144.425 2158.32 145.301C2132.05 147.928 2104.91 150.555 2078.64 153.182C2050.61 156.685 2022.59 160.187 1993.7 162.814C1977.06 164.566 1961.3 166.317 1944.66 168.068C1935.03 168.944 1926.27 168.944 1917.51 168.944C1914.01 168.944 1910.51 168.068 1907.01 167.193C1905.25 167.193 1903.5 166.317 1902.63 165.441C1899.12 163.69 1899.12 159.312 1902.63 157.56C1904.38 156.685 1907.01 155.809 1908.76 154.933C1921.02 153.182 1934.15 152.306 1947.29 153.182Z" fill="#FF564F"/>
<path d="M2022.77 372.098C2021.02 373.849 2019.27 375.601 2017.52 377.352C2004.38 392.238 1990.37 405.373 1975.48 418.508C1965.85 426.389 1956.22 434.27 1945.71 440.4C1940.46 443.902 1935.2 446.529 1929.07 448.281C1911.56 452.659 1898.43 443.902 1896.67 426.389C1895.8 418.508 1896.67 410.627 1899.3 402.746C1907.18 377.352 1919.44 353.709 1936.08 332.693C1940.46 327.439 1944.84 323.936 1949.21 319.558C1951.84 317.807 1955.34 316.055 1958.85 314.304C1966.73 312.553 1973.73 316.931 1973.73 325.688C1973.73 328.315 1973.73 330.942 1972.86 333.569C1971.98 336.196 1970.23 339.698 1968.48 343.201C1959.72 360.714 1946.59 374.725 1930.83 386.984C1928.2 388.735 1924.7 390.487 1921.19 391.363C1918.57 393.114 1917.69 393.989 1916.81 396.616C1914.19 403.622 1912.44 409.751 1911.56 416.757C1911.56 421.135 1911.56 424.638 1912.44 428.14C1914.19 433.394 1916.81 435.146 1922.07 435.146C1925.57 435.146 1929.95 434.27 1933.45 432.519C1940.46 429.016 1947.46 425.513 1954.47 421.135C1970.23 410.627 1985.12 397.492 1999.13 384.357C2016.64 367.72 2033.28 349.331 2046.41 330.066C2047.29 328.315 2049.04 326.563 2049.92 325.688C2051.67 323.936 2055.17 323.936 2056.92 324.812C2059.55 326.563 2060.42 328.315 2060.42 330.942C2060.42 331.817 2059.55 332.693 2059.55 332.693C2058.67 334.444 2059.55 336.196 2061.3 337.071C2071.81 344.077 2074.43 354.585 2071.81 366.844C2067.43 387.86 2056.05 406.249 2040.28 420.259C2037.66 422.886 2035.03 424.638 2032.4 425.513C2023.65 429.016 2016.64 425.513 2014.01 417.632C2013.14 413.254 2013.14 408 2014.01 403.622C2014.89 394.865 2017.52 386.984 2021.02 379.103C2021.89 377.352 2022.77 374.725 2023.65 372.974C2022.77 372.974 2022.77 372.098 2022.77 372.098ZM2060.42 362.466C2059.55 356.336 2059.55 351.082 2055.17 346.704C2054.29 345.828 2053.42 345.828 2052.54 346.704C2051.67 347.579 2051.67 348.455 2050.79 349.331C2043.79 363.341 2036.78 377.352 2031.53 393.114C2029.78 397.492 2028.02 401.87 2027.15 406.249C2027.15 408.876 2026.27 411.503 2028.02 413.254C2030.65 414.13 2032.4 411.503 2034.15 409.751C2044.66 399.243 2053.42 386.984 2057.8 372.974C2058.67 369.471 2059.55 365.093 2060.42 362.466ZM1929.95 370.347C1941.33 362.466 1956.22 341.45 1957.1 331.817C1947.46 338.823 1932.58 359.839 1929.95 370.347Z" fill="#FF564F"/>
<path d="M1917.49 376.477C1920.11 376.477 1921.87 379.98 1920.11 381.731C1919.24 381.731 1919.24 382.607 1919.24 382.607C1906.1 395.742 1893.84 408.001 1881.58 421.136C1871.95 430.768 1862.32 440.401 1851.81 449.157C1847.43 453.536 1843.06 456.163 1838.68 459.665C1836.05 461.417 1833.42 462.292 1829.92 463.168C1822.91 464.919 1816.79 461.417 1814.16 453.536C1813.28 450.033 1813.28 445.655 1813.28 443.903C1816.79 422.887 1822.04 408.877 1831.67 388.737C1831.67 386.11 1830.8 386.11 1824.67 385.234C1822.04 384.358 1818.54 384.358 1815.91 382.607C1808.9 379.98 1805.4 373.85 1808.03 366.845C1808.9 363.342 1809.78 359.84 1811.53 357.213C1815.03 351.083 1818.54 344.078 1822.91 337.948C1823.79 337.072 1824.67 336.197 1825.54 335.321C1827.29 334.445 1829.92 333.57 1831.67 334.445C1833.42 336.197 1835.17 337.948 1834.3 339.699C1834.3 342.326 1833.42 344.953 1832.55 346.705C1829.92 351.959 1827.29 357.213 1824.67 362.467C1820.29 370.348 1820.29 371.223 1829.92 373.85C1831.67 374.726 1834.3 374.726 1836.05 375.602C1843.93 378.229 1846.56 382.607 1843.93 389.612C1838.68 408.001 1844.81 389.612 1832.55 419.385C1830.8 425.514 1829.04 432.52 1827.29 438.649C1826.42 440.401 1826.42 442.152 1826.42 443.903C1825.54 446.53 1823.79 453.536 1826.42 455.287C1837.8 464.044 1911.36 377.353 1917.49 376.477Z" fill="#FF564F"/>
<path d="M1725.39 479.804C1726.27 459.664 1730.65 440.399 1735.9 421.135C1739.4 408 1742.9 394.865 1747.28 381.73C1749.03 375.6 1747.28 370.346 1743.78 365.968C1742.03 363.341 1741.15 363.341 1739.4 365.968C1732.4 374.725 1726.27 383.481 1719.26 392.238C1713.13 400.119 1706.13 408 1698.25 415.881C1695.62 418.508 1691.24 421.135 1687.74 423.762C1685.99 425.513 1684.24 426.389 1682.48 426.389C1669.35 431.643 1661.47 422.01 1662.34 412.378C1662.34 408.875 1663.22 404.497 1664.97 400.995C1671.1 384.357 1680.73 372.098 1694.74 361.59C1704.38 353.709 1715.76 347.579 1728.89 345.828C1729.77 345.828 1730.65 344.952 1732.4 345.828C1736.77 346.703 1739.4 344.076 1742.03 340.574C1751.66 328.314 1760.42 316.055 1770.05 302.92C1773.55 298.542 1776.18 293.288 1778.81 287.158C1787.56 260.888 1798.07 234.618 1810.33 210.099C1819.09 191.71 1828.72 174.197 1840.1 158.435C1846.23 150.554 1851.49 142.673 1859.37 136.543C1862 133.916 1865.5 132.165 1869 130.414C1875.13 127.787 1880.38 131.289 1879.51 138.295C1879.51 140.922 1878.63 143.549 1877.76 145.3C1876.01 150.554 1873.38 155.808 1871.63 160.186C1847.98 205.721 1822.59 249.504 1792.82 291.536C1789.31 296.79 1786.69 301.169 1784.06 307.298C1777.93 327.439 1770.93 347.579 1763.92 367.719C1761.29 374.725 1761.29 383.481 1756.92 390.486C1749.03 415.005 1742.03 440.399 1736.77 465.794C1735.9 474.55 1735.02 482.431 1734.15 490.312C1734.15 492.064 1733.27 495.566 1736.77 493.815C1737.65 493.815 1738.53 494.691 1738.53 495.566C1738.53 498.193 1737.65 500.82 1735.9 502.572C1733.27 505.199 1729.77 505.199 1728.02 501.696C1727.14 499.945 1726.27 497.318 1726.27 495.566C1726.27 490.312 1725.39 485.058 1725.39 479.804ZM1677.23 409.751C1678.11 410.627 1678.11 411.502 1678.11 412.378C1678.98 412.378 1680.73 411.502 1680.73 411.502C1685.11 408 1689.49 404.497 1692.99 400.995C1702.62 389.611 1713.13 377.352 1722.76 365.968C1722.76 365.092 1723.64 365.092 1723.64 364.217C1723.64 364.217 1723.64 363.341 1723.64 362.465H1722.76C1721.89 362.465 1720.14 363.341 1719.26 363.341C1701.75 372.098 1688.61 385.233 1679.86 402.746C1678.98 405.373 1678.11 407.124 1677.23 409.751ZM1858.49 158.435C1845.36 172.446 1814.71 228.488 1810.33 245.126C1819.09 236.369 1851.49 179.451 1858.49 158.435ZM1758.67 339.698C1756.04 343.201 1754.29 345.828 1751.66 349.33C1750.79 351.082 1752.54 354.584 1754.29 354.584C1755.16 354.584 1756.04 352.833 1756.04 351.957C1757.79 348.455 1759.54 344.076 1758.67 339.698Z" fill="#FF564F"/>
<path d="M1525.28 395.741C1527.03 393.989 1528.79 392.238 1530.54 390.487C1541.05 376.476 1552.43 363.341 1566.44 351.957C1569.94 349.33 1572.57 347.579 1576.07 345.828C1585.7 341.449 1593.59 344.076 1597.09 353.709C1598.84 358.087 1598.84 362.465 1599.71 366.844C1600.59 374.725 1601.47 382.606 1602.34 390.487C1602.34 393.989 1604.09 397.492 1605.84 400.995C1606.72 404.497 1610.22 405.373 1613.73 404.497C1616.35 404.497 1619.85 403.622 1622.48 401.87C1627.74 400.119 1633.87 397.492 1639.12 393.989C1653.13 386.984 1668.02 379.103 1682.9 371.222C1685.53 370.346 1688.16 369.471 1690.78 369.471C1690.78 368.595 1691.66 369.471 1692.54 370.346L1691.66 371.222C1689.03 372.973 1686.41 373.849 1683.78 375.6C1672.39 382.606 1661.01 390.487 1648.75 397.492C1642.62 401.87 1636.49 406.249 1629.49 410.627C1625.11 413.254 1619.85 415.881 1613.73 417.632C1604.97 419.384 1598.84 416.757 1593.58 408.876C1589.21 404.497 1587.46 399.243 1586.58 393.114C1584.83 384.357 1583.95 376.476 1583.08 367.719C1582.2 365.092 1582.2 363.341 1581.33 359.838C1577.82 362.465 1575.2 364.217 1572.57 365.968C1564.69 372.973 1557.68 380.854 1550.68 388.735C1540.17 401.87 1531.41 415.881 1522.66 429.892C1520.03 433.394 1518.28 436.897 1516.53 439.524C1514.78 442.151 1512.15 443.902 1509.52 444.778C1505.14 445.654 1501.64 444.778 1499.01 440.4C1497.26 437.773 1497.26 435.146 1497.26 432.519C1498.14 426.389 1499.01 420.259 1500.76 414.13C1506.02 394.865 1512.15 376.476 1518.28 357.211C1520.03 352.833 1520.9 347.579 1522.66 343.201C1525.28 333.568 1528.79 324.812 1532.29 315.179C1533.16 312.553 1534.04 310.801 1536.67 309.925C1542.8 307.298 1548.05 309.925 1548.05 316.055C1548.93 318.682 1548.05 322.185 1547.17 324.812C1544.55 335.32 1541.05 345.828 1537.54 356.336C1533.16 368.595 1528.79 380.854 1525.28 393.114C1525.28 393.989 1524.41 394.865 1524.41 395.741H1525.28Z" fill="#FF564F"/>
<path d="M1538.04 322.184C1538.92 323.06 1539.79 323.06 1539.79 323.936C1539.79 324.811 1538.92 325.687 1538.92 325.687C1538.04 325.687 1537.17 326.563 1536.29 326.563C1533.66 326.563 1531.91 326.563 1529.28 326.563C1519.65 325.687 1509.14 328.314 1498.64 329.19C1486.38 330.941 1474.12 332.692 1460.98 334.444C1445.22 337.071 1430.33 338.822 1414.57 340.573C1408.44 341.449 1403.19 342.325 1397.06 343.2C1385.67 383.481 1374.29 422.886 1363.78 463.167C1354.15 500.82 1344.52 539.35 1335.76 577.879C1332.26 591.014 1329.63 605.025 1328.76 619.035C1328.76 620.787 1329.63 622.538 1329.63 624.289C1332.26 624.289 1332.26 621.662 1334.01 620.787C1335.76 619.035 1336.64 617.284 1338.39 615.533C1338.39 614.657 1339.26 614.657 1340.14 614.657C1339.26 620.787 1336.64 626.916 1332.26 632.17C1332.26 632.17 1331.38 633.046 1330.51 633.922C1327.01 636.549 1322.63 634.797 1321.75 630.419C1320.88 628.668 1320.88 626.041 1320.88 623.414C1321.75 613.781 1321.75 604.149 1323.5 594.517C1328.76 555.987 1337.51 518.334 1347.15 481.556C1358.53 436.021 1370.79 390.486 1383.92 344.952C1376.04 346.703 1368.16 347.579 1360.28 348.454C1335.76 352.833 1311.24 356.335 1285.85 360.714C1263.96 399.243 1241.19 437.772 1217.55 476.302C1205.29 496.442 1193.03 515.707 1179.89 535.847C1172.89 545.479 1165.88 554.236 1158 563.868C1155.37 567.371 1151 571.749 1146.62 574.376C1143.12 577.003 1139.61 577.879 1136.11 579.63C1132.61 581.382 1129.1 580.506 1126.48 577.879C1123.85 575.252 1123.85 571.749 1125.6 568.247C1125.6 568.247 1125.6 567.371 1126.48 567.371C1132.61 554.236 1139.61 541.101 1148.37 528.842C1150.12 526.215 1152.75 523.588 1155.37 521.836C1156.25 520.961 1158.88 520.961 1159.75 521.836C1160.63 522.712 1160.63 524.463 1159.75 525.339C1158.88 527.09 1158 528.842 1157.13 529.717C1150.12 539.35 1144.87 548.982 1141.36 560.366C1142.24 559.49 1143.12 558.614 1143.99 557.739C1150.12 550.733 1156.25 543.728 1160.63 535.847C1173.76 515.707 1186.9 495.566 1199.16 476.302C1222.8 438.648 1246.44 400.994 1269.21 364.216C1235.94 369.47 1202.66 375.6 1169.39 381.73C1164.13 382.605 1158.88 383.481 1152.75 384.357C1155.37 385.232 1157.13 386.108 1158.88 386.984C1161.5 388.735 1162.38 391.362 1159.75 393.989C1157.13 395.74 1154.5 395.74 1151.87 395.74C1145.74 396.616 1138.74 396.616 1132.61 396.616C1118.6 398.367 1104.59 400.119 1091.45 400.994C1074.81 401.87 1059.05 401.87 1043.29 402.746C1038.91 402.746 1036.28 400.994 1035.41 398.367C1034.53 394.865 1038.04 391.362 1042.41 390.486C1052.92 388.735 1063.43 386.984 1074.81 386.108C1102.83 380.854 1131.73 376.476 1160.63 372.097C1185.15 368.595 1210.54 364.216 1235.06 360.714C1249.07 358.087 1262.21 356.335 1275.34 353.708C1309.49 298.541 1342.77 241.623 1376.04 185.581C1401.44 141.797 1427.71 98.8896 1453.1 55.982C1460.11 43.7227 1467.11 31.4633 1474.12 19.204C1475.87 15.7013 1478.5 12.1987 1480.25 9.57166C1482 7.82035 1482.87 6.06904 1484.63 4.31768C1490.75 -0.0606475 1497.76 2.56637 1498.64 10.4474C1499.51 13.95 1498.64 17.4527 1497.76 20.0797C1496.01 29.712 1494.26 39.3443 1490.75 48.101C1481.12 80.5006 1470.61 112.025 1460.11 143.549C1439.09 207.472 1418.95 271.396 1399.69 336.195C1408.44 335.319 1418.07 333.568 1426.83 332.692C1441.72 330.941 1457.48 329.19 1472.37 328.314C1483.75 326.563 1496.01 325.687 1507.39 324.811C1517.02 323.936 1525.78 323.06 1535.41 322.184C1536.29 322.184 1537.17 322.184 1538.04 322.184ZM1376.04 338.822C1378.67 338.822 1382.17 337.946 1385.67 337.946C1402.31 278.401 1420.7 218.856 1439.09 160.186C1450.47 124.284 1461.86 89.2573 1472.37 53.355C1473.24 50.728 1474.12 48.101 1474.99 45.474C1474.99 45.474 1474.12 45.474 1474.12 44.5983C1472.37 47.2253 1470.61 48.9766 1469.74 50.728C1428.58 115.527 1390.05 181.202 1351.52 246.877C1332.26 281.904 1312.12 316.93 1291.98 351.081C1298.11 350.206 1305.11 349.33 1311.24 348.454C1333.13 344.952 1354.15 342.325 1376.04 338.822Z" fill="#FF564F"/>
<path d="M883.471 411.503C884.346 410.628 885.222 409.752 886.098 408.876C908.865 386.109 931.632 364.217 955.275 343.201C967.535 332.693 978.918 321.31 989.426 308.175C991.178 306.423 992.929 304.672 996.432 303.796C999.059 302.045 1001.69 302.921 1003.44 304.672C1006.06 307.299 1006.94 309.926 1006.06 312.553C1005.19 315.18 1003.44 316.931 1002.56 318.683C999.059 325.688 995.556 331.818 992.929 338.823C991.178 341.45 991.178 341.45 993.805 342.326C1001.69 344.953 1004.31 350.207 1006.06 357.212C1006.94 365.093 1006.06 372.098 1004.31 379.104C999.059 400.12 989.426 417.633 976.291 433.395C974.54 436.022 971.913 438.649 969.286 440.4C966.659 442.152 964.032 443.903 961.405 443.903C957.027 444.779 953.524 443.027 950.897 439.525C949.146 436.898 948.27 433.395 948.27 429.892C948.27 422.011 949.146 414.13 950.897 406.249C956.151 385.233 964.032 364.217 972.789 344.077C973.664 342.326 973.664 340.574 974.54 338.823C974.54 338.823 974.54 337.947 973.664 337.072C971.913 338.823 970.162 339.699 968.41 341.45C937.762 365.969 908.865 392.239 881.719 421.136C878.217 425.514 876.465 429.892 874.714 435.146C863.33 471.924 851.071 508.702 838.812 545.48C828.304 577.88 816.044 610.279 802.034 640.928C797.655 651.436 792.401 661.068 787.147 671.576C783.645 676.83 779.266 682.084 774.888 687.338C772.261 690.841 768.758 692.592 764.38 694.343C757.375 696.095 752.121 694.343 748.618 689.089C745.115 685.587 743.364 680.333 741.613 675.079C739.861 663.695 740.737 652.311 742.489 640.928C746.867 614.658 756.499 589.263 768.758 565.62C786.272 531.469 808.163 499.945 832.682 470.173C839.687 460.54 847.568 451.784 854.574 443.027C857.201 440.4 859.828 436.898 860.703 433.395C867.709 407.125 874.714 381.731 882.595 356.336C882.595 354.585 883.471 353.709 883.471 351.958C883.471 351.958 883.471 351.082 882.595 351.082C882.595 351.082 881.719 351.082 881.719 351.958C879.968 353.709 879.092 355.461 878.217 357.212C866.833 377.352 853.698 395.741 837.936 412.379C833.558 417.633 828.304 422.011 823.925 425.514C821.298 428.141 817.796 429.892 814.293 430.768C806.412 433.395 799.407 429.017 798.531 420.26C798.531 415.882 799.407 411.503 800.282 408.001C802.034 400.995 804.661 394.866 807.288 388.736C816.92 367.72 829.179 348.455 843.19 330.942C848.444 325.688 854.574 319.558 859.828 314.304C862.455 311.677 865.957 309.926 869.46 309.05C875.59 306.423 879.968 307.299 884.346 311.677C885.222 312.553 885.222 313.429 886.973 314.304C887.849 311.677 888.725 309.05 889.6 307.299C895.73 295.04 900.984 281.905 906.238 268.77C907.989 266.143 908.865 263.516 910.616 260.889C912.368 258.262 915.87 256.51 919.373 257.386C922 259.137 923.751 261.764 923.751 265.267C923.751 267.018 922.876 269.645 922.876 272.272C914.119 301.169 906.238 330.942 897.481 359.839C893.103 375.601 887.849 391.363 883.471 407.125C883.471 408.001 882.595 409.752 882.595 410.628C883.471 410.628 883.471 410.628 883.471 411.503ZM852.822 455.287C851.071 457.038 850.195 457.914 848.444 459.665C829.179 483.308 811.666 507.826 795.904 534.096C781.018 558.615 768.758 584.009 760.002 611.155C755.623 626.041 752.121 641.803 752.121 657.565C752.121 662.819 752.997 668.073 753.872 673.327C754.748 675.954 755.623 680.333 759.126 681.208C762.629 682.084 765.256 678.581 767.007 675.954C770.51 671.576 774.012 667.198 776.639 662.819C784.52 650.56 790.65 636.549 795.904 623.414C818.671 569.999 835.309 514.832 852.822 459.665C852.822 458.789 852.822 457.038 852.822 455.287ZM874.714 336.196C874.714 332.693 873.838 329.191 872.963 325.688C872.963 323.937 872.087 323.937 870.336 324.812C867.709 327.439 864.206 329.191 861.579 332.693C841.439 353.709 826.552 379.104 815.169 405.374C813.417 408.876 813.417 412.379 812.542 415.882C816.92 415.882 819.547 412.379 822.174 409.752C843.19 389.612 859.828 366.844 872.963 340.574C873.838 339.699 874.714 337.947 874.714 336.196ZM993.805 366.844C992.929 362.466 992.929 358.963 992.053 355.461C991.178 352.834 987.675 351.958 985.924 354.585C985.048 355.461 984.172 358.088 983.297 359.839C977.167 375.601 971.037 392.239 966.659 408.876C965.783 413.255 964.908 418.509 964.032 422.887C964.032 423.763 964.032 423.763 964.908 424.638C964.908 424.638 965.783 424.638 966.659 423.763C978.043 410.628 985.924 396.617 991.178 379.979C992.053 375.601 992.929 371.223 993.805 366.844Z" fill="#FF564F"/>
<path d="M794.208 292.413C796.835 293.289 798.586 295.916 798.586 299.418C798.586 302.045 798.586 304.672 797.71 307.299C795.083 316.056 792.456 325.688 789.829 334.445C774.943 381.731 760.057 428.141 746.046 474.551C745.17 478.054 744.295 481.557 743.419 484.184C742.543 485.935 742.543 486.811 741.668 487.687C740.792 488.562 739.041 489.438 737.289 489.438C736.414 488.562 735.538 487.687 735.538 486.811C735.538 484.184 735.538 481.557 736.414 479.806C740.792 453.536 746.922 427.266 753.927 400.996C760.057 379.104 767.062 358.088 773.192 336.196C773.192 334.445 774.067 331.818 774.943 330.067C774.067 330.067 774.067 330.067 773.192 330.067C771.44 331.818 769.689 334.445 767.938 337.072C758.305 351.958 747.797 365.969 738.165 380.855C732.911 386.985 727.657 393.99 723.279 400.12C721.527 402.747 718.9 404.498 716.273 405.374C711.019 408.877 704.89 406.25 704.89 399.244C704.89 395.742 706.641 391.363 707.517 387.861C708.392 384.358 710.144 380.855 711.019 376.477C708.392 377.353 707.517 379.98 705.765 380.855C695.257 393.115 684.749 405.374 673.366 416.758C667.236 422.887 661.106 429.017 654.977 435.147C651.474 437.774 647.971 440.401 643.593 442.152C633.961 446.53 626.08 442.152 623.453 431.644C621.701 425.514 622.577 419.385 624.328 413.255C626.955 402.747 630.458 392.239 633.961 381.731C635.712 377.353 636.588 372.974 638.339 368.596C639.215 365.093 640.09 361.591 641.842 358.088C648.847 344.953 654.977 331.818 661.982 318.683C662.858 316.932 664.609 315.18 666.36 314.305C668.987 312.553 671.614 312.553 673.366 314.305C675.993 316.056 676.868 318.683 675.993 321.31C675.117 323.937 674.241 326.564 673.366 329.191C667.236 342.326 661.106 354.585 654.977 368.596C649.723 381.731 644.469 395.742 640.09 409.752C638.339 415.006 637.463 420.26 637.463 425.514C636.588 429.893 638.339 430.768 642.717 428.141C645.344 426.39 648.847 424.639 650.598 422.887C657.604 416.758 663.733 411.504 669.863 405.374C697.884 378.228 725.03 350.207 750.424 320.434C752.176 318.683 753.927 316.932 756.554 315.18C758.305 313.429 760.932 312.553 763.559 315.18C766.186 316.932 767.062 318.683 765.311 322.186C764.435 324.813 762.684 326.564 761.808 329.191C758.305 332.694 755.678 337.072 752.176 340.575C743.419 351.958 734.662 363.342 727.657 375.601C726.781 377.353 725.906 378.228 725.906 380.855C726.781 379.98 727.657 379.104 728.533 378.228C747.797 351.958 767.062 326.564 784.575 298.543C784.575 297.667 785.451 295.916 786.327 295.04C788.078 293.289 790.705 291.537 794.208 292.413ZM683.874 288.035C682.122 288.91 675.993 286.283 683.874 275.775C686.501 272.273 690.003 274.9 690.879 276.651C692.63 281.029 689.128 287.159 683.874 288.035Z" fill="#FF564F"/>
<path d="M560.43 154.934C559.554 156.685 557.803 157.561 556.927 159.312C551.673 165.442 547.295 171.571 542.041 177.701C541.165 178.577 540.29 179.452 539.414 180.328C538.538 181.204 536.787 181.204 535.911 181.204C535.911 180.328 535.036 178.577 535.036 177.701C535.036 175.95 535.911 174.198 536.787 173.323C549.922 147.928 563.933 123.41 581.446 99.7667C582.322 98.0154 584.073 95.3884 586.7 94.5127C594.581 91.8857 598.959 98.0154 598.084 103.269C598.084 105.896 597.208 108.523 596.332 111.15C591.954 122.534 587.576 133.042 583.197 144.426C560.43 203.095 509.641 346.705 492.128 407.125C490.377 413.255 488.625 419.385 488.625 425.514C490.377 423.763 491.252 422.012 493.004 420.26C501.76 408.877 510.517 396.617 519.274 385.234C525.403 377.353 532.409 370.347 539.414 363.342C542.041 360.715 545.544 358.088 549.046 357.213C555.176 353.71 561.306 356.337 563.933 362.466C565.684 365.969 566.56 369.472 567.435 373.85C567.435 379.104 567.435 384.358 568.311 389.612C568.311 397.493 568.311 404.498 569.187 411.504C570.062 415.006 570.938 419.385 571.814 422.887C573.565 426.39 575.316 427.266 578.819 426.39C581.446 424.639 584.949 422.887 587.576 421.136C591.954 417.633 595.457 414.131 598.959 410.628C610.343 399.244 620.851 388.736 633.11 379.104C635.737 377.353 637.489 375.601 640.116 373.85C640.991 372.975 641.867 372.975 643.618 372.099C642.743 373.85 642.743 373.85 642.743 374.726C631.359 384.358 621.727 395.742 611.219 407.125C606.84 413.255 600.711 419.385 595.457 424.639C592.83 427.266 589.327 429.893 585.824 432.52C583.197 434.271 580.57 435.147 577.943 436.022C571.814 436.898 567.435 435.147 563.933 430.768C562.181 426.39 559.554 422.012 558.679 417.633C555.176 407.125 554.3 395.742 553.425 385.234C553.425 381.731 553.425 377.353 552.549 373.85C551.673 371.223 550.798 371.223 549.046 372.099C547.295 374.726 544.668 376.477 542.917 379.104C534.16 390.488 524.528 400.996 516.647 413.255C508.766 423.763 501.76 434.271 494.755 444.779C492.128 448.282 489.501 450.909 487.75 454.411C485.998 456.163 485.123 457.038 483.371 458.79C479.869 460.541 476.366 461.417 472.863 459.665C469.361 457.914 467.609 454.411 467.609 450.909C467.609 448.282 467.609 445.655 468.485 443.028C471.112 431.644 473.739 420.26 477.242 409.752C493.004 353.71 540.29 215.355 559.554 161.063C560.43 159.312 560.43 157.561 561.306 155.809C561.306 154.934 560.43 154.934 560.43 154.934Z" fill="#FF564F"/>
<path d="M200.601 115.529C201.477 116.405 201.477 117.28 202.353 118.156C205.855 120.783 205.855 123.41 201.477 125.161C199.726 126.037 198.85 126.037 197.974 126.037C176.958 128.664 156.818 134.793 136.678 140.048C108.657 147.928 80.6352 154.934 52.6139 160.188C42.9816 161.939 32.4736 162.815 22.8413 163.69C18.4629 164.566 14.0846 164.566 10.582 163.69C7.95496 163.69 5.32797 162.815 3.57664 161.939C0.0739666 159.312 -0.801688 154.058 1.8253 149.68C3.57664 146.177 7.07931 143.55 10.582 141.799C16.7116 140.048 22.8413 137.42 28.9709 134.793C49.1113 128.664 70.1273 124.286 91.1432 119.907C138.429 110.275 184.839 103.27 232.125 97.1399C273.282 91.0102 314.438 85.7562 355.594 80.5022C387.994 76.1239 420.394 72.6212 452.793 69.1185C472.934 66.4915 492.198 64.7402 512.339 62.1132C516.717 62.1132 519.344 60.3619 521.095 55.9836C525.474 42.8486 530.728 29.7136 535.106 15.7029C536.857 12.2003 538.609 8.69758 540.36 6.07062C542.987 0.816587 548.241 -0.0590679 551.744 1.69224C556.122 3.4436 557.873 6.94627 556.998 13.0759C556.998 14.8273 556.122 17.4542 556.122 19.2056C552.619 29.7136 549.117 40.2216 545.614 50.7296C545.614 52.4809 544.738 54.2322 543.863 55.9836C543.863 57.7349 543.863 59.4862 546.49 58.6106C551.744 58.6106 556.998 57.7349 563.127 57.7349C580.641 55.1079 599.03 53.3565 617.419 51.6052C634.932 49.8539 652.445 48.1026 669.958 46.3512C687.472 44.5999 704.109 42.8486 721.623 41.0972C740.012 39.3459 758.401 37.5946 776.79 35.8432C790.8 34.9676 804.811 33.2162 817.946 32.3406C838.962 30.5893 859.978 28.8379 880.994 26.2109C894.129 25.3352 906.388 23.5839 919.523 21.8326C920.399 21.8326 921.275 21.8326 922.15 21.8326C923.026 21.8326 923.026 22.7083 923.902 23.5839C923.902 23.5839 923.902 24.4596 923.026 24.4596C921.275 25.3352 919.523 26.2109 917.772 27.0866C909.015 27.0866 900.259 28.8379 892.378 27.9622C886.248 27.0866 880.118 28.8379 874.864 29.7136C857.351 31.4649 839.838 34.0919 822.324 35.8432C798.681 38.4703 775.038 41.0972 751.395 43.7242C730.379 46.3512 710.239 48.9782 689.223 50.7296C669.083 53.3565 648.942 55.9836 628.802 58.6106C609.538 60.3619 589.397 62.9889 570.133 64.7402C562.252 65.6159 554.371 67.3672 546.49 67.3672C541.236 68.2429 538.609 69.9942 536.857 75.2482C530.728 93.6372 523.722 112.902 516.717 131.291C474.685 244.252 435.28 358.964 401.129 474.552C391.497 508.703 380.989 543.73 373.983 578.756C372.232 584.886 371.356 591.891 370.481 598.896C370.481 601.523 370.481 604.15 369.605 606.777C369.605 607.653 370.481 608.529 370.481 608.529C371.356 608.529 372.232 608.529 372.232 607.653C374.859 605.902 377.486 603.275 379.237 600.648C380.113 600.648 380.989 600.648 380.989 599.772C381.864 600.648 381.864 601.523 381.864 602.399C380.113 606.777 377.486 612.032 374.859 616.41C373.983 618.161 372.232 619.037 370.481 619.912C366.978 622.539 362.6 620.788 360.848 616.41C359.973 612.032 359.973 607.653 359.973 603.275C360.848 594.518 361.724 585.762 363.475 577.005C369.605 542.854 378.362 507.827 387.994 473.676C409.01 395.742 434.404 318.683 460.674 242.5C470.307 214.479 479.939 186.458 489.571 158.436C493.074 147.928 495.701 136.545 499.204 126.037C503.582 111.151 507.96 95.3885 512.339 80.5022C513.214 78.7508 514.09 76.9995 514.09 75.2482C514.966 72.6212 514.09 72.6212 512.339 72.6212C509.712 72.6212 507.085 72.6212 505.333 72.6212C464.177 77.8752 422.145 83.1292 380.989 89.2589C331.076 96.2642 280.287 103.27 229.498 111.151C219.866 112.026 210.234 113.777 200.601 115.529ZM169.078 121.658C155.067 121.658 51.7383 143.55 38.6033 149.68C83.2622 147.053 126.17 133.918 169.078 121.658Z" fill="#FF564F"/>
</svg>
